# xmcd CD database file
#
# Track frame offsets:
#	150
#	4497
#	13732
#	27577
#	38710
#	74720
#	89332
#	110367
#	124032
#	142672
#	166865
#
# Disc length: 2659 seconds
#
# Revision: 1
# Processed by: cddbd v1.5.2PL0 Copyright (c) Steve Scherf et al.
# Submitted via: CDex 1.70beta2
#
DISCID=8e0a610b
DTITLE=Jackson Berkey - Atlantic Fantasy
DYEAR=2003
DGENRE=Jazz
TTITLE0=Introduction
TTITLE1=Jeffrey Piper
TTITLE2=Gull Friend at the Beach
TTITLE3=Shrimp in the Sink
TTITLE4=S.S. Atlantus
TTITLE5=Longings
TTITLE6=Fire and Snow
TTITLE7=Jackson Cove Moonrise
TTITLE8=Sakura
TTITLE9=Sweet Jaro
TTITLE10=The Last Goodbye
EXTD=YEAR: 2003
EXTT0=
EXTT1=
EXTT2=
EXTT3=
EXTT4=
EXTT5=
EXTT6=
EXTT7=
EXTT8=
EXTT9=
EXTT10=
PLAYORDER=
